M48
;GenerationSoftware,Autodesk,EAGLE,9.7.0*%
;CreationDate,2025-04-10T19:28:46Z*%
FMAT,2
ICI,OFF
METRIC,TZ,000.000
T2C0.300
T1C0.650
%
G90
M71
T1
X165217Y74190
X165217Y68410
T2
X34163Y62357
X30099Y58293
X153670Y61849
X76454Y72517
X34163Y63754
X27940Y57531
X7874Y59182
X11557Y62865
X25781Y65024
X34798Y64516
X13335Y115443
X13335Y111125
X20701Y122428
X34925Y46990
X107188Y51943
X94996Y59436
X152654Y64008
X160655Y72009
X151765Y60198
X163195Y72644
X54356Y125857
X48387Y119888
X19177Y124587
X38862Y67437
X33655Y66929
X19812Y51308
X20066Y53721
X6350Y80010
X42037Y65024
X38227Y46990
X7239Y105918
X7239Y95123
X86360Y29591
X44958Y29591
X15494Y54864
X36703Y37846
X87503Y31750
X47117Y31369
X41529Y66294
X41529Y47498
X24384Y67945
X5207Y93472
X34163Y37973
X34417Y45720
X33020Y66929
X11938Y82042
X11938Y92456
X9144Y107823
X27686Y66929
X89154Y34163
X89789Y34798
X81788Y53086
X93218Y60325
X81788Y60325
X73406Y39243
X78486Y40386
X78105Y39116
X83439Y57658
X81280Y36195
X92837Y32893
X78232Y30861
X89789Y32385
X102108Y32385
X18796Y50927
X98806Y29083
X89789Y31750
X107188Y31750
X16256Y64516
X36957Y43815
X71501Y30861
X11049Y58674
X12065Y58674
X20701Y67310
X48895Y119507
X89154Y29591
X152527Y64897
X69977Y53721
X72771Y51435
X23749Y84836
X29210Y84836
X26543Y69977
X146177Y21082
X40005Y68072
X69850Y57531
X105283Y32258
X21971Y72009
X82296Y72009
X111633Y29591
X146939Y54229
X146939Y53213
X21209Y71501
X83820Y71501
X139065Y58801
X152019Y27813
X164084Y37719
X89662Y30099
X106807Y30099
X16129Y63373
X77597Y73025
X136398Y64770
M30