G04 EAGLE Gerber RS-274X export*
G75*
%MOMM*%
%FSLAX34Y34*%
%LPD*%
%INSolderpaste Top*%
%IPPOS*%
%AMOC8*
5,1,8,0,0,1.08239X$1,22.5*%
G01*
G04 Define Apertures*
%ADD10R,1.400000X1.050000*%
%ADD11R,0.900000X0.700000*%
%ADD12R,1.400000X1.400000*%
%ADD13R,0.700000X0.900000*%
%ADD14R,2.200000X2.000000*%
%ADD15R,0.800000X0.800000*%
%ADD16R,1.200000X0.600000*%
%ADD17R,0.940000X0.970000*%
%ADD18R,0.900000X0.800000*%
%ADD19R,1.150000X0.800000*%
%ADD20R,0.970000X0.940000*%
%ADD21R,0.800000X0.900000*%
%ADD22R,0.900000X0.600000*%
%ADD23R,0.300000X0.800000*%
%ADD24R,0.400000X0.800000*%
%ADD25R,1.150000X0.300000*%
%ADD26R,2.000000X2.180000*%
%ADD27R,2.000000X1.200000*%
%ADD28R,1.350000X0.600000*%
%ADD29R,1.200000X1.800000*%
%ADD30R,1.900000X1.400000*%
%ADD31R,1.500000X0.700000*%
%ADD32R,1.500000X3.600000*%
%ADD33R,0.500000X1.050000*%
%ADD34C,0.125000*%
%ADD35R,1.168400X1.600200*%
%ADD36R,1.010000X1.460000*%
%ADD37C,0.110000*%
%ADD38R,1.200000X0.550000*%
%ADD39R,1.500000X0.900000*%
%ADD40R,0.800000X0.800000*%
%ADD41C,0.147500*%
%ADD42R,0.560000X0.820000*%
%ADD43C,0.067500*%
%ADD44R,0.127000X0.127000*%
D10*
X257530Y1266400D03*
X222530Y1266400D03*
X222530Y1251400D03*
X257530Y1251400D03*
D11*
X1468600Y203300D03*
X1468600Y190300D03*
X677400Y1257700D03*
X677400Y1244700D03*
D12*
X944700Y691700D03*
X944700Y713700D03*
D13*
X1167600Y608800D03*
X1180600Y608800D03*
X1135300Y470000D03*
X1122300Y470000D03*
D11*
X1082000Y506100D03*
X1082000Y519100D03*
X1485600Y203500D03*
X1485600Y190500D03*
X1280200Y635700D03*
X1280200Y648700D03*
D14*
X1236400Y502200D03*
X1236400Y532200D03*
D11*
X963800Y589700D03*
X963800Y602700D03*
X1477000Y633200D03*
X1477000Y646200D03*
X531400Y1262500D03*
X531400Y1249500D03*
X1565000Y668700D03*
X1565000Y655700D03*
X276600Y1257700D03*
X276600Y1244700D03*
D13*
X809800Y533400D03*
X796800Y533400D03*
X854900Y678400D03*
X841900Y678400D03*
D11*
X84600Y1171100D03*
X84600Y1158100D03*
D10*
X658580Y1266670D03*
X623580Y1266670D03*
X623580Y1251670D03*
X658580Y1251670D03*
D15*
X1186800Y629500D03*
X1171800Y629500D03*
D11*
X532200Y1205700D03*
X532200Y1192700D03*
D16*
X1537000Y629500D03*
X1537000Y639000D03*
X1537000Y648500D03*
X1512000Y648500D03*
X1512000Y639000D03*
X1512000Y629500D03*
D17*
X414000Y450400D03*
X414000Y465400D03*
X373000Y450200D03*
X373000Y465200D03*
X336000Y450000D03*
X336000Y465000D03*
D18*
X1288900Y505100D03*
X1288900Y526100D03*
D19*
X940200Y594000D03*
X905200Y594000D03*
X905400Y559100D03*
X940400Y559100D03*
X822200Y647900D03*
X787200Y647900D03*
D20*
X711769Y505000D03*
X726769Y505000D03*
D21*
X889400Y825900D03*
X868400Y825900D03*
D20*
X142800Y1155000D03*
X157800Y1155000D03*
D17*
X327000Y589400D03*
X327000Y574400D03*
D11*
X944200Y355000D03*
X944200Y368000D03*
X802800Y355700D03*
X802800Y368700D03*
X773000Y384300D03*
X773000Y397300D03*
X746800Y385100D03*
X746800Y398100D03*
X924200Y355100D03*
X924200Y368100D03*
X903800Y355100D03*
X903800Y368100D03*
X874200Y355200D03*
X874200Y368200D03*
X855200Y355300D03*
X855200Y368300D03*
X839200Y355400D03*
X839200Y368400D03*
X820200Y355500D03*
X820200Y368500D03*
D22*
X475200Y1207500D03*
X475200Y1198000D03*
X475200Y1188500D03*
X503200Y1188500D03*
X503200Y1207500D03*
X1184500Y507300D03*
X1184500Y516800D03*
X1184500Y526300D03*
X1156500Y526300D03*
X1156500Y507300D03*
D23*
X937600Y309200D03*
X932600Y309200D03*
X927600Y309200D03*
X922600Y309200D03*
X917600Y309200D03*
X912600Y309200D03*
X907600Y309200D03*
X902600Y309200D03*
X897600Y309200D03*
X892600Y309200D03*
X887600Y309200D03*
X882600Y309200D03*
X877600Y309200D03*
X872600Y309200D03*
X867600Y309200D03*
X862600Y309200D03*
X857600Y309200D03*
X852600Y309200D03*
X847600Y309200D03*
X842600Y309200D03*
X837600Y309200D03*
X832600Y309200D03*
X827600Y309200D03*
X822600Y309200D03*
D24*
X947600Y284200D03*
X812600Y284200D03*
D25*
X1641420Y679500D03*
X1641420Y687500D03*
X1641420Y700500D03*
X1641420Y710500D03*
X1641420Y715500D03*
X1641420Y725500D03*
X1641420Y738500D03*
X1641420Y746500D03*
X1641420Y743500D03*
X1641420Y735500D03*
X1641420Y730500D03*
X1641420Y720500D03*
X1641420Y705500D03*
X1641420Y695500D03*
X1641420Y690500D03*
X1641420Y682500D03*
D26*
X1686470Y661900D03*
X1686470Y764100D03*
X1647170Y661900D03*
X1647170Y764100D03*
D27*
X1689281Y334276D03*
X1689281Y390276D03*
D28*
X1652531Y347276D03*
X1652531Y357276D03*
X1652531Y367276D03*
X1652531Y377276D03*
D29*
X164500Y1022800D03*
X164500Y1079800D03*
D30*
X22000Y992800D03*
X32000Y1124300D03*
D31*
X60500Y1040800D03*
X64500Y1051800D03*
X60500Y1062800D03*
X58500Y1073800D03*
X60500Y1084800D03*
X58500Y1095800D03*
X60500Y1106800D03*
X60500Y1117800D03*
D29*
X164500Y1051300D03*
X164500Y1108300D03*
D32*
X1540000Y568400D03*
X1495000Y568400D03*
D21*
X1286800Y568300D03*
X1305800Y568300D03*
X1296300Y589300D03*
D18*
X733300Y572000D03*
X733300Y553000D03*
X754300Y562500D03*
D33*
X726400Y341100D03*
X739400Y341100D03*
X732900Y362100D03*
D11*
X192600Y524100D03*
X192600Y537100D03*
X110600Y1171400D03*
X110600Y1158400D03*
D13*
X1128800Y630800D03*
X1141800Y630800D03*
D11*
X1515000Y196500D03*
X1515000Y209500D03*
D13*
X824300Y827200D03*
X837300Y827200D03*
D11*
X1105700Y518600D03*
X1105700Y505600D03*
D13*
X719700Y298400D03*
X732700Y298400D03*
D11*
X1532000Y197100D03*
X1532000Y210100D03*
X924800Y777900D03*
X924800Y790900D03*
D13*
X1524100Y594600D03*
X1537100Y594600D03*
X1523900Y610000D03*
X1536900Y610000D03*
D11*
X1204400Y569000D03*
X1204400Y582000D03*
X764400Y267400D03*
X764400Y280400D03*
D13*
X761300Y314400D03*
X774300Y314400D03*
D11*
X292400Y588500D03*
X292400Y575500D03*
X411600Y372700D03*
X411600Y385700D03*
X373600Y371900D03*
X373600Y384900D03*
X333600Y372100D03*
X333600Y385100D03*
X682600Y554300D03*
X682600Y567300D03*
D10*
X506720Y1266670D03*
X471720Y1266670D03*
X471720Y1251670D03*
X506720Y1251670D03*
D11*
X201000Y1243000D03*
X201000Y1256000D03*
X916300Y690400D03*
X916300Y703400D03*
X601300Y1246100D03*
X601300Y1259100D03*
X705600Y568100D03*
X705600Y555100D03*
X446800Y1248500D03*
X446800Y1261500D03*
D34*
X1504675Y273135D02*
X1504675Y264225D01*
X1500925Y264225D01*
X1500925Y273135D01*
X1504675Y273135D01*
X1504675Y265412D02*
X1500925Y265412D01*
X1500925Y266599D02*
X1504675Y266599D01*
X1504675Y267786D02*
X1500925Y267786D01*
X1500925Y268973D02*
X1504675Y268973D01*
X1504675Y270160D02*
X1500925Y270160D01*
X1500925Y271347D02*
X1504675Y271347D01*
X1504675Y272534D02*
X1500925Y272534D01*
X1512675Y273135D02*
X1512675Y264225D01*
X1508925Y264225D01*
X1508925Y273135D01*
X1512675Y273135D01*
X1512675Y265412D02*
X1508925Y265412D01*
X1508925Y266599D02*
X1512675Y266599D01*
X1512675Y267786D02*
X1508925Y267786D01*
X1508925Y268973D02*
X1512675Y268973D01*
X1512675Y270160D02*
X1508925Y270160D01*
X1508925Y271347D02*
X1512675Y271347D01*
X1512675Y272534D02*
X1508925Y272534D01*
X1520675Y273135D02*
X1520675Y264225D01*
X1516925Y264225D01*
X1516925Y273135D01*
X1520675Y273135D01*
X1520675Y265412D02*
X1516925Y265412D01*
X1516925Y266599D02*
X1520675Y266599D01*
X1520675Y267786D02*
X1516925Y267786D01*
X1516925Y268973D02*
X1520675Y268973D01*
X1520675Y270160D02*
X1516925Y270160D01*
X1516925Y271347D02*
X1520675Y271347D01*
X1520675Y272534D02*
X1516925Y272534D01*
X1528675Y273135D02*
X1528675Y264225D01*
X1524925Y264225D01*
X1524925Y273135D01*
X1528675Y273135D01*
X1528675Y265412D02*
X1524925Y265412D01*
X1524925Y266599D02*
X1528675Y266599D01*
X1528675Y267786D02*
X1524925Y267786D01*
X1524925Y268973D02*
X1528675Y268973D01*
X1528675Y270160D02*
X1524925Y270160D01*
X1524925Y271347D02*
X1528675Y271347D01*
X1528675Y272534D02*
X1524925Y272534D01*
X1528875Y243975D02*
X1528875Y235065D01*
X1525125Y235065D01*
X1525125Y243975D01*
X1528875Y243975D01*
X1528875Y236252D02*
X1525125Y236252D01*
X1525125Y237439D02*
X1528875Y237439D01*
X1528875Y238626D02*
X1525125Y238626D01*
X1525125Y239813D02*
X1528875Y239813D01*
X1528875Y241000D02*
X1525125Y241000D01*
X1525125Y242187D02*
X1528875Y242187D01*
X1528875Y243374D02*
X1525125Y243374D01*
X1520675Y243975D02*
X1520675Y235065D01*
X1516925Y235065D01*
X1516925Y243975D01*
X1520675Y243975D01*
X1520675Y236252D02*
X1516925Y236252D01*
X1516925Y237439D02*
X1520675Y237439D01*
X1520675Y238626D02*
X1516925Y238626D01*
X1516925Y239813D02*
X1520675Y239813D01*
X1520675Y241000D02*
X1516925Y241000D01*
X1516925Y242187D02*
X1520675Y242187D01*
X1520675Y243374D02*
X1516925Y243374D01*
X1512675Y243975D02*
X1512675Y235065D01*
X1508925Y235065D01*
X1508925Y243975D01*
X1512675Y243975D01*
X1512675Y236252D02*
X1508925Y236252D01*
X1508925Y237439D02*
X1512675Y237439D01*
X1512675Y238626D02*
X1508925Y238626D01*
X1508925Y239813D02*
X1512675Y239813D01*
X1512675Y241000D02*
X1508925Y241000D01*
X1508925Y242187D02*
X1512675Y242187D01*
X1512675Y243374D02*
X1508925Y243374D01*
X1504675Y243975D02*
X1504675Y235065D01*
X1500925Y235065D01*
X1500925Y243975D01*
X1504675Y243975D01*
X1504675Y236252D02*
X1500925Y236252D01*
X1500925Y237439D02*
X1504675Y237439D01*
X1504675Y238626D02*
X1500925Y238626D01*
X1500925Y239813D02*
X1504675Y239813D01*
X1504675Y241000D02*
X1500925Y241000D01*
X1500925Y242187D02*
X1504675Y242187D01*
X1504675Y243374D02*
X1500925Y243374D01*
D35*
X718180Y277200D03*
X733420Y277200D03*
D36*
X360650Y678400D03*
X375350Y678400D03*
X360650Y659200D03*
X375350Y659200D03*
D37*
X333200Y686200D02*
X324900Y686200D01*
X324900Y689500D01*
X333200Y689500D01*
X333200Y686200D01*
X333200Y687245D02*
X324900Y687245D01*
X324900Y688290D02*
X333200Y688290D01*
X333200Y689335D02*
X324900Y689335D01*
X324900Y673500D02*
X333200Y673500D01*
X324900Y673500D02*
X324900Y676800D01*
X333200Y676800D01*
X333200Y673500D01*
X333200Y674545D02*
X324900Y674545D01*
X324900Y675590D02*
X333200Y675590D01*
X333200Y676635D02*
X324900Y676635D01*
X324900Y660800D02*
X333200Y660800D01*
X324900Y660800D02*
X324900Y664100D01*
X333200Y664100D01*
X333200Y660800D01*
X333200Y661845D02*
X324900Y661845D01*
X324900Y662890D02*
X333200Y662890D01*
X333200Y663935D02*
X324900Y663935D01*
X324900Y648100D02*
X333200Y648100D01*
X324900Y648100D02*
X324900Y651400D01*
X333200Y651400D01*
X333200Y648100D01*
X333200Y649145D02*
X324900Y649145D01*
X324900Y650190D02*
X333200Y650190D01*
X333200Y651235D02*
X324900Y651235D01*
X402800Y648100D02*
X411100Y648100D01*
X402800Y648100D02*
X402800Y651400D01*
X411100Y651400D01*
X411100Y648100D01*
X411100Y649145D02*
X402800Y649145D01*
X402800Y650190D02*
X411100Y650190D01*
X411100Y651235D02*
X402800Y651235D01*
X402800Y660800D02*
X411100Y660800D01*
X402800Y660800D02*
X402800Y664100D01*
X411100Y664100D01*
X411100Y660800D01*
X411100Y661845D02*
X402800Y661845D01*
X402800Y662890D02*
X411100Y662890D01*
X411100Y663935D02*
X402800Y663935D01*
X402800Y673500D02*
X411100Y673500D01*
X402800Y673500D02*
X402800Y676800D01*
X411100Y676800D01*
X411100Y673500D01*
X411100Y674545D02*
X402800Y674545D01*
X402800Y675590D02*
X411100Y675590D01*
X411100Y676635D02*
X402800Y676635D01*
X402800Y686200D02*
X411100Y686200D01*
X402800Y686200D02*
X402800Y689500D01*
X411100Y689500D01*
X411100Y686200D01*
X411100Y687245D02*
X402800Y687245D01*
X402800Y688290D02*
X411100Y688290D01*
X411100Y689335D02*
X402800Y689335D01*
D38*
X1234801Y611000D03*
X1234801Y620500D03*
X1234801Y630000D03*
X1208799Y630000D03*
X1208799Y611000D03*
D39*
G36*
X82739Y582515D02*
X82766Y567516D01*
X73767Y567501D01*
X73740Y582500D01*
X82739Y582515D01*
G37*
G36*
X95439Y582537D02*
X95466Y567538D01*
X86467Y567523D01*
X86440Y582522D01*
X95439Y582537D01*
G37*
G36*
X108139Y582560D02*
X108166Y567561D01*
X99167Y567546D01*
X99140Y582545D01*
X108139Y582560D01*
G37*
G36*
X120839Y582582D02*
X120866Y567583D01*
X111867Y567568D01*
X111840Y582567D01*
X120839Y582582D01*
G37*
G36*
X133539Y582604D02*
X133566Y567605D01*
X124567Y567590D01*
X124540Y582589D01*
X133539Y582604D01*
G37*
G36*
X146239Y582626D02*
X146266Y567627D01*
X137267Y567612D01*
X137240Y582611D01*
X146239Y582626D01*
G37*
G36*
X158939Y582648D02*
X158966Y567649D01*
X149967Y567634D01*
X149940Y582633D01*
X158939Y582648D01*
G37*
G36*
X171639Y582670D02*
X171666Y567671D01*
X162667Y567656D01*
X162640Y582655D01*
X171639Y582670D01*
G37*
G36*
X184339Y582693D02*
X184366Y567694D01*
X175367Y567679D01*
X175340Y582678D01*
X184339Y582693D01*
G37*
G36*
X197039Y582715D02*
X197066Y567716D01*
X188067Y567701D01*
X188040Y582700D01*
X197039Y582715D01*
G37*
G36*
X209739Y582737D02*
X209766Y567738D01*
X200767Y567723D01*
X200740Y582722D01*
X209739Y582737D01*
G37*
G36*
X222439Y582759D02*
X222466Y567760D01*
X213467Y567745D01*
X213440Y582744D01*
X222439Y582759D01*
G37*
G36*
X235139Y582781D02*
X235166Y567782D01*
X226167Y567767D01*
X226140Y582766D01*
X235139Y582781D01*
G37*
G36*
X247839Y582803D02*
X247866Y567804D01*
X238867Y567789D01*
X238840Y582788D01*
X247839Y582803D01*
G37*
G36*
X247533Y757803D02*
X247560Y742804D01*
X238561Y742789D01*
X238534Y757788D01*
X247533Y757803D01*
G37*
G36*
X234833Y757781D02*
X234860Y742782D01*
X225861Y742767D01*
X225834Y757766D01*
X234833Y757781D01*
G37*
G36*
X222133Y757759D02*
X222160Y742760D01*
X213161Y742745D01*
X213134Y757744D01*
X222133Y757759D01*
G37*
G36*
X209433Y757737D02*
X209460Y742738D01*
X200461Y742723D01*
X200434Y757722D01*
X209433Y757737D01*
G37*
G36*
X196733Y757715D02*
X196760Y742716D01*
X187761Y742701D01*
X187734Y757700D01*
X196733Y757715D01*
G37*
G36*
X184033Y757692D02*
X184060Y742693D01*
X175061Y742678D01*
X175034Y757677D01*
X184033Y757692D01*
G37*
G36*
X171333Y757670D02*
X171360Y742671D01*
X162361Y742656D01*
X162334Y757655D01*
X171333Y757670D01*
G37*
G36*
X158633Y757648D02*
X158660Y742649D01*
X149661Y742634D01*
X149634Y757633D01*
X158633Y757648D01*
G37*
G36*
X145933Y757626D02*
X145960Y742627D01*
X136961Y742612D01*
X136934Y757611D01*
X145933Y757626D01*
G37*
G36*
X133233Y757604D02*
X133260Y742605D01*
X124261Y742590D01*
X124234Y757589D01*
X133233Y757604D01*
G37*
G36*
X120533Y757582D02*
X120560Y742583D01*
X111561Y742568D01*
X111534Y757567D01*
X120533Y757582D01*
G37*
G36*
X107833Y757559D02*
X107860Y742560D01*
X98861Y742545D01*
X98834Y757544D01*
X107833Y757559D01*
G37*
G36*
X95133Y757537D02*
X95160Y742538D01*
X86161Y742523D01*
X86134Y757522D01*
X95133Y757537D01*
G37*
G36*
X82433Y757515D02*
X82460Y742516D01*
X73461Y742501D01*
X73434Y757500D01*
X82433Y757515D01*
G37*
D40*
G36*
X139319Y651564D02*
X139332Y643565D01*
X131333Y643552D01*
X131320Y651551D01*
X139319Y651564D01*
G37*
G36*
X126841Y639042D02*
X126854Y631043D01*
X118855Y631030D01*
X118842Y639029D01*
X126841Y639042D01*
G37*
G36*
X126819Y651542D02*
X126832Y643543D01*
X118833Y643530D01*
X118820Y651529D01*
X126819Y651542D01*
G37*
G36*
X126797Y664042D02*
X126810Y656043D01*
X118811Y656030D01*
X118798Y664029D01*
X126797Y664042D01*
G37*
G36*
X139341Y639064D02*
X139354Y631065D01*
X131355Y631052D01*
X131342Y639051D01*
X139341Y639064D01*
G37*
G36*
X139297Y664064D02*
X139310Y656065D01*
X131311Y656052D01*
X131298Y664051D01*
X139297Y664064D01*
G37*
G36*
X151841Y639086D02*
X151854Y631087D01*
X143855Y631074D01*
X143842Y639073D01*
X151841Y639086D01*
G37*
G36*
X151819Y651586D02*
X151832Y643587D01*
X143833Y643574D01*
X143820Y651573D01*
X151819Y651586D01*
G37*
G36*
X151797Y664086D02*
X151810Y656087D01*
X143811Y656074D01*
X143798Y664073D01*
X151797Y664086D01*
G37*
D41*
X846437Y784437D02*
X846437Y803463D01*
X850863Y803463D01*
X850863Y784437D01*
X846437Y784437D01*
X846437Y785838D02*
X850863Y785838D01*
X850863Y787239D02*
X846437Y787239D01*
X846437Y788640D02*
X850863Y788640D01*
X850863Y790041D02*
X846437Y790041D01*
X846437Y791442D02*
X850863Y791442D01*
X850863Y792843D02*
X846437Y792843D01*
X846437Y794244D02*
X850863Y794244D01*
X850863Y795645D02*
X846437Y795645D01*
X846437Y797046D02*
X850863Y797046D01*
X850863Y798447D02*
X846437Y798447D01*
X846437Y799848D02*
X850863Y799848D01*
X850863Y801249D02*
X846437Y801249D01*
X846437Y802650D02*
X850863Y802650D01*
X833737Y803463D02*
X833737Y784437D01*
X833737Y803463D02*
X838163Y803463D01*
X838163Y784437D01*
X833737Y784437D01*
X833737Y785838D02*
X838163Y785838D01*
X838163Y787239D02*
X833737Y787239D01*
X833737Y788640D02*
X838163Y788640D01*
X838163Y790041D02*
X833737Y790041D01*
X833737Y791442D02*
X838163Y791442D01*
X838163Y792843D02*
X833737Y792843D01*
X833737Y794244D02*
X838163Y794244D01*
X838163Y795645D02*
X833737Y795645D01*
X833737Y797046D02*
X838163Y797046D01*
X838163Y798447D02*
X833737Y798447D01*
X833737Y799848D02*
X838163Y799848D01*
X838163Y801249D02*
X833737Y801249D01*
X833737Y802650D02*
X838163Y802650D01*
X821037Y803463D02*
X821037Y784437D01*
X821037Y803463D02*
X825463Y803463D01*
X825463Y784437D01*
X821037Y784437D01*
X821037Y785838D02*
X825463Y785838D01*
X825463Y787239D02*
X821037Y787239D01*
X821037Y788640D02*
X825463Y788640D01*
X825463Y790041D02*
X821037Y790041D01*
X821037Y791442D02*
X825463Y791442D01*
X825463Y792843D02*
X821037Y792843D01*
X821037Y794244D02*
X825463Y794244D01*
X825463Y795645D02*
X821037Y795645D01*
X821037Y797046D02*
X825463Y797046D01*
X825463Y798447D02*
X821037Y798447D01*
X821037Y799848D02*
X825463Y799848D01*
X825463Y801249D02*
X821037Y801249D01*
X821037Y802650D02*
X825463Y802650D01*
X808337Y803463D02*
X808337Y784437D01*
X808337Y803463D02*
X812763Y803463D01*
X812763Y784437D01*
X808337Y784437D01*
X808337Y785838D02*
X812763Y785838D01*
X812763Y787239D02*
X808337Y787239D01*
X808337Y788640D02*
X812763Y788640D01*
X812763Y790041D02*
X808337Y790041D01*
X808337Y791442D02*
X812763Y791442D01*
X812763Y792843D02*
X808337Y792843D01*
X808337Y794244D02*
X812763Y794244D01*
X812763Y795645D02*
X808337Y795645D01*
X808337Y797046D02*
X812763Y797046D01*
X812763Y798447D02*
X808337Y798447D01*
X808337Y799848D02*
X812763Y799848D01*
X812763Y801249D02*
X808337Y801249D01*
X808337Y802650D02*
X812763Y802650D01*
X795637Y803463D02*
X795637Y784437D01*
X795637Y803463D02*
X800063Y803463D01*
X800063Y784437D01*
X795637Y784437D01*
X795637Y785838D02*
X800063Y785838D01*
X800063Y787239D02*
X795637Y787239D01*
X795637Y788640D02*
X800063Y788640D01*
X800063Y790041D02*
X795637Y790041D01*
X795637Y791442D02*
X800063Y791442D01*
X800063Y792843D02*
X795637Y792843D01*
X795637Y794244D02*
X800063Y794244D01*
X800063Y795645D02*
X795637Y795645D01*
X795637Y797046D02*
X800063Y797046D01*
X800063Y798447D02*
X795637Y798447D01*
X795637Y799848D02*
X800063Y799848D01*
X800063Y801249D02*
X795637Y801249D01*
X795637Y802650D02*
X800063Y802650D01*
X782937Y803463D02*
X782937Y784437D01*
X782937Y803463D02*
X787363Y803463D01*
X787363Y784437D01*
X782937Y784437D01*
X782937Y785838D02*
X787363Y785838D01*
X787363Y787239D02*
X782937Y787239D01*
X782937Y788640D02*
X787363Y788640D01*
X787363Y790041D02*
X782937Y790041D01*
X782937Y791442D02*
X787363Y791442D01*
X787363Y792843D02*
X782937Y792843D01*
X782937Y794244D02*
X787363Y794244D01*
X787363Y795645D02*
X782937Y795645D01*
X782937Y797046D02*
X787363Y797046D01*
X787363Y798447D02*
X782937Y798447D01*
X782937Y799848D02*
X787363Y799848D01*
X787363Y801249D02*
X782937Y801249D01*
X782937Y802650D02*
X787363Y802650D01*
X770237Y803463D02*
X770237Y784437D01*
X770237Y803463D02*
X774663Y803463D01*
X774663Y784437D01*
X770237Y784437D01*
X770237Y785838D02*
X774663Y785838D01*
X774663Y787239D02*
X770237Y787239D01*
X770237Y788640D02*
X774663Y788640D01*
X774663Y790041D02*
X770237Y790041D01*
X770237Y791442D02*
X774663Y791442D01*
X774663Y792843D02*
X770237Y792843D01*
X770237Y794244D02*
X774663Y794244D01*
X774663Y795645D02*
X770237Y795645D01*
X770237Y797046D02*
X774663Y797046D01*
X774663Y798447D02*
X770237Y798447D01*
X770237Y799848D02*
X774663Y799848D01*
X774663Y801249D02*
X770237Y801249D01*
X770237Y802650D02*
X774663Y802650D01*
X757537Y803463D02*
X757537Y784437D01*
X757537Y803463D02*
X761963Y803463D01*
X761963Y784437D01*
X757537Y784437D01*
X757537Y785838D02*
X761963Y785838D01*
X761963Y787239D02*
X757537Y787239D01*
X757537Y788640D02*
X761963Y788640D01*
X761963Y790041D02*
X757537Y790041D01*
X757537Y791442D02*
X761963Y791442D01*
X761963Y792843D02*
X757537Y792843D01*
X757537Y794244D02*
X761963Y794244D01*
X761963Y795645D02*
X757537Y795645D01*
X757537Y797046D02*
X761963Y797046D01*
X761963Y798447D02*
X757537Y798447D01*
X757537Y799848D02*
X761963Y799848D01*
X761963Y801249D02*
X757537Y801249D01*
X757537Y802650D02*
X761963Y802650D01*
X757537Y710363D02*
X757537Y691337D01*
X757537Y710363D02*
X761963Y710363D01*
X761963Y691337D01*
X757537Y691337D01*
X757537Y692738D02*
X761963Y692738D01*
X761963Y694139D02*
X757537Y694139D01*
X757537Y695540D02*
X761963Y695540D01*
X761963Y696941D02*
X757537Y696941D01*
X757537Y698342D02*
X761963Y698342D01*
X761963Y699743D02*
X757537Y699743D01*
X757537Y701144D02*
X761963Y701144D01*
X761963Y702545D02*
X757537Y702545D01*
X757537Y703946D02*
X761963Y703946D01*
X761963Y705347D02*
X757537Y705347D01*
X757537Y706748D02*
X761963Y706748D01*
X761963Y708149D02*
X757537Y708149D01*
X757537Y709550D02*
X761963Y709550D01*
X770237Y710363D02*
X770237Y691337D01*
X770237Y710363D02*
X774663Y710363D01*
X774663Y691337D01*
X770237Y691337D01*
X770237Y692738D02*
X774663Y692738D01*
X774663Y694139D02*
X770237Y694139D01*
X770237Y695540D02*
X774663Y695540D01*
X774663Y696941D02*
X770237Y696941D01*
X770237Y698342D02*
X774663Y698342D01*
X774663Y699743D02*
X770237Y699743D01*
X770237Y701144D02*
X774663Y701144D01*
X774663Y702545D02*
X770237Y702545D01*
X770237Y703946D02*
X774663Y703946D01*
X774663Y705347D02*
X770237Y705347D01*
X770237Y706748D02*
X774663Y706748D01*
X774663Y708149D02*
X770237Y708149D01*
X770237Y709550D02*
X774663Y709550D01*
X782937Y710363D02*
X782937Y691337D01*
X782937Y710363D02*
X787363Y710363D01*
X787363Y691337D01*
X782937Y691337D01*
X782937Y692738D02*
X787363Y692738D01*
X787363Y694139D02*
X782937Y694139D01*
X782937Y695540D02*
X787363Y695540D01*
X787363Y696941D02*
X782937Y696941D01*
X782937Y698342D02*
X787363Y698342D01*
X787363Y699743D02*
X782937Y699743D01*
X782937Y701144D02*
X787363Y701144D01*
X787363Y702545D02*
X782937Y702545D01*
X782937Y703946D02*
X787363Y703946D01*
X787363Y705347D02*
X782937Y705347D01*
X782937Y706748D02*
X787363Y706748D01*
X787363Y708149D02*
X782937Y708149D01*
X782937Y709550D02*
X787363Y709550D01*
X795637Y710363D02*
X795637Y691337D01*
X795637Y710363D02*
X800063Y710363D01*
X800063Y691337D01*
X795637Y691337D01*
X795637Y692738D02*
X800063Y692738D01*
X800063Y694139D02*
X795637Y694139D01*
X795637Y695540D02*
X800063Y695540D01*
X800063Y696941D02*
X795637Y696941D01*
X795637Y698342D02*
X800063Y698342D01*
X800063Y699743D02*
X795637Y699743D01*
X795637Y701144D02*
X800063Y701144D01*
X800063Y702545D02*
X795637Y702545D01*
X795637Y703946D02*
X800063Y703946D01*
X800063Y705347D02*
X795637Y705347D01*
X795637Y706748D02*
X800063Y706748D01*
X800063Y708149D02*
X795637Y708149D01*
X795637Y709550D02*
X800063Y709550D01*
X808337Y710363D02*
X808337Y691337D01*
X808337Y710363D02*
X812763Y710363D01*
X812763Y691337D01*
X808337Y691337D01*
X808337Y692738D02*
X812763Y692738D01*
X812763Y694139D02*
X808337Y694139D01*
X808337Y695540D02*
X812763Y695540D01*
X812763Y696941D02*
X808337Y696941D01*
X808337Y698342D02*
X812763Y698342D01*
X812763Y699743D02*
X808337Y699743D01*
X808337Y701144D02*
X812763Y701144D01*
X812763Y702545D02*
X808337Y702545D01*
X808337Y703946D02*
X812763Y703946D01*
X812763Y705347D02*
X808337Y705347D01*
X808337Y706748D02*
X812763Y706748D01*
X812763Y708149D02*
X808337Y708149D01*
X808337Y709550D02*
X812763Y709550D01*
X821037Y710363D02*
X821037Y691337D01*
X821037Y710363D02*
X825463Y710363D01*
X825463Y691337D01*
X821037Y691337D01*
X821037Y692738D02*
X825463Y692738D01*
X825463Y694139D02*
X821037Y694139D01*
X821037Y695540D02*
X825463Y695540D01*
X825463Y696941D02*
X821037Y696941D01*
X821037Y698342D02*
X825463Y698342D01*
X825463Y699743D02*
X821037Y699743D01*
X821037Y701144D02*
X825463Y701144D01*
X825463Y702545D02*
X821037Y702545D01*
X821037Y703946D02*
X825463Y703946D01*
X825463Y705347D02*
X821037Y705347D01*
X821037Y706748D02*
X825463Y706748D01*
X825463Y708149D02*
X821037Y708149D01*
X821037Y709550D02*
X825463Y709550D01*
X833737Y710363D02*
X833737Y691337D01*
X833737Y710363D02*
X838163Y710363D01*
X838163Y691337D01*
X833737Y691337D01*
X833737Y692738D02*
X838163Y692738D01*
X838163Y694139D02*
X833737Y694139D01*
X833737Y695540D02*
X838163Y695540D01*
X838163Y696941D02*
X833737Y696941D01*
X833737Y698342D02*
X838163Y698342D01*
X838163Y699743D02*
X833737Y699743D01*
X833737Y701144D02*
X838163Y701144D01*
X838163Y702545D02*
X833737Y702545D01*
X833737Y703946D02*
X838163Y703946D01*
X838163Y705347D02*
X833737Y705347D01*
X833737Y706748D02*
X838163Y706748D01*
X838163Y708149D02*
X833737Y708149D01*
X833737Y709550D02*
X838163Y709550D01*
X846437Y710363D02*
X846437Y691337D01*
X846437Y710363D02*
X850863Y710363D01*
X850863Y691337D01*
X846437Y691337D01*
X846437Y692738D02*
X850863Y692738D01*
X850863Y694139D02*
X846437Y694139D01*
X846437Y695540D02*
X850863Y695540D01*
X850863Y696941D02*
X846437Y696941D01*
X846437Y698342D02*
X850863Y698342D01*
X850863Y699743D02*
X846437Y699743D01*
X846437Y701144D02*
X850863Y701144D01*
X850863Y702545D02*
X846437Y702545D01*
X846437Y703946D02*
X850863Y703946D01*
X850863Y705347D02*
X846437Y705347D01*
X846437Y706748D02*
X850863Y706748D01*
X850863Y708149D02*
X846437Y708149D01*
X846437Y709550D02*
X850863Y709550D01*
D42*
X1322400Y641200D03*
D43*
X1316013Y647687D02*
X1309087Y647687D01*
X1309087Y649713D01*
X1316013Y649713D01*
X1316013Y647687D01*
X1316013Y648328D02*
X1309087Y648328D01*
X1309087Y648969D02*
X1316013Y648969D01*
X1316013Y649610D02*
X1309087Y649610D01*
X1309087Y642687D02*
X1316013Y642687D01*
X1309087Y642687D02*
X1309087Y644713D01*
X1316013Y644713D01*
X1316013Y642687D01*
X1316013Y643328D02*
X1309087Y643328D01*
X1309087Y643969D02*
X1316013Y643969D01*
X1316013Y644610D02*
X1309087Y644610D01*
X1309087Y637687D02*
X1316013Y637687D01*
X1309087Y637687D02*
X1309087Y639713D01*
X1316013Y639713D01*
X1316013Y637687D01*
X1316013Y638328D02*
X1309087Y638328D01*
X1309087Y638969D02*
X1316013Y638969D01*
X1316013Y639610D02*
X1309087Y639610D01*
X1309087Y632687D02*
X1316013Y632687D01*
X1309087Y632687D02*
X1309087Y634713D01*
X1316013Y634713D01*
X1316013Y632687D01*
X1316013Y633328D02*
X1309087Y633328D01*
X1309087Y633969D02*
X1316013Y633969D01*
X1316013Y634610D02*
X1309087Y634610D01*
X1328787Y632687D02*
X1335713Y632687D01*
X1328787Y632687D02*
X1328787Y634713D01*
X1335713Y634713D01*
X1335713Y632687D01*
X1335713Y633328D02*
X1328787Y633328D01*
X1328787Y633969D02*
X1335713Y633969D01*
X1335713Y634610D02*
X1328787Y634610D01*
X1328787Y637687D02*
X1335713Y637687D01*
X1328787Y637687D02*
X1328787Y639713D01*
X1335713Y639713D01*
X1335713Y637687D01*
X1335713Y638328D02*
X1328787Y638328D01*
X1328787Y638969D02*
X1335713Y638969D01*
X1335713Y639610D02*
X1328787Y639610D01*
X1328787Y642687D02*
X1335713Y642687D01*
X1328787Y642687D02*
X1328787Y644713D01*
X1335713Y644713D01*
X1335713Y642687D01*
X1335713Y643328D02*
X1328787Y643328D01*
X1328787Y643969D02*
X1335713Y643969D01*
X1335713Y644610D02*
X1328787Y644610D01*
X1328787Y647687D02*
X1335713Y647687D01*
X1328787Y647687D02*
X1328787Y649713D01*
X1335713Y649713D01*
X1335713Y647687D01*
X1335713Y648328D02*
X1328787Y648328D01*
X1328787Y648969D02*
X1335713Y648969D01*
X1335713Y649610D02*
X1328787Y649610D01*
D44*
X842140Y637000D03*
X887860Y637000D03*
M02*
